<svg width="121.24" height="122.88" xmlns="http://www.w3.org/2000/svg">
 <style type="text/css">.st0{fill-rule:evenodd;clip-rule:evenodd;}</style>

 <g>
  <title>background</title>
  <rect fill="none" id="canvas_background" height="514" width="514" y="-1" x="-1"/>
 </g>
 <g>
  <title>Layer 1</title>
  <g id="svg_1">
   <path fill="#ff807a" id="svg_2" d="m10.05,96.6c-3.67,8.91 -8.63,17.37 -10.05,26.28l5.13,-0.44c8.1,-23.56 15.4,-39.4 31.23,-59.21c11.88,-14.84 24.77,-26.65 41.3,-36.03c8.8,-5 20.07,-10.47 30.21,-11.85c2.77,-0.38 5.58,-0.49 8.46,-0.24c-31.4,7.19 -56.26,23.84 -76.12,48.8c-8.11,10.18 -15.16,21.49 -21.64,33.41l11.94,2.18l-4.97,-2.47l17.78,-2.83c-6.6,-2.33 -13.12,-1.55 -15.21,-4.06c18.3,-0.83 33.34,-4.78 43.9,-12.45c-3.93,-0.55 -8.46,-1.04 -10.82,-2.17c17.69,-5.98 27.92,-16.73 40.9,-26.27c-16.87,3.54 -32.48,2.96 -37,-0.25c29.77,2.21 49,-6.02 55.59,-26.77c0.57,-2.24 0.73,-4.5 0.37,-6.78c-2.31,-14.83 -28.56,-19.84 -37.1,-7.68c-1.71,2.43 -4.12,4.66 -6.11,7.48l8.13,-15.25c-21.88,7.39 -23.68,15.54 -35,40.09c0.9,-7.47 2.97,-14.24 5.66,-20.63c-27.34,10.55 -36.45,37.11 -37.91,59.7c-0.79,-7.88 0.67,-17.78 3.49,-28.9c-7.98,8 -13.41,17.39 -11.47,30.79l-3.65,-1.63l1.92,7.19l-5.46,-2.59l6.5,12.58l0,0z" class="st0"/>
  </g>
 </g>
</svg>